<?xml version="1.0" encoding="utf-8"?>
<!-- Generator: Adobe Illustrator 22.1.0, SVG Export Plug-In . SVG Version: 6.00 Build 0)  -->
<svg version="1.1" id="Layer_1_1_" xmlns="http://www.w3.org/2000/svg" xmlns:xlink="http://www.w3.org/1999/xlink" x="0px" y="0px"
	 viewBox="0 0 16 16" style="enable-background:new 0 0 16 16;" xml:space="preserve">
<style type="text/css">
	.st0{fill:#F7296E;}
</style>
<path class="st0" d="M14,4c-0.1-0.6-0.4-1.1-0.8-1.5c-0.4-0.4-0.9-0.6-1.5-0.6c-0.1,0-0.2,0-0.3,0C11,1.3,10.4,1,9.8,1
	c-0.5,0-1,0.2-1.3,0.5C8,1.2,7.6,1,7,1C6.4,1,5.7,1.3,5.3,1.9C5.1,1.9,4.9,1.8,4.7,1.8c-0.5,0-1.1,0.2-1.5,0.6
	C2.8,2.9,2.6,3.4,2.5,4c0,0.2-0.1,0.4-0.1,0.6c0,0.8,0.3,1.6,0.8,2.1c-0.8,0.3-1.3,1-1.3,1.8v0.8c0,1.1,0.9,2,2,2H4v2.1
	C4,14.3,4.8,15,5.8,15h4.9c1,0,1.8-0.7,1.8-1.6V7.1c0,0,0.1,0,0.1-0.1c0.9-0.4,1.4-1.4,1.4-2.5C14.1,4.4,14.1,4.2,14,4L14,4z
	 M4.1,10.6C3.5,10.5,3,10,3,9.4V8.9c0-0.6,0.5-1.1,1.1-1.2V10.6z M12.3,6.6c-0.2,0.1-0.4,0.1-0.6,0.1c-0.5,0-0.9-0.3-1.2-0.7
	c-0.1-0.1-0.3-0.2-0.5-0.1C9.9,6,9.9,6,9.9,6.1C9.6,6.8,9,7.3,8.4,7.3c-0.1,0-0.2,0-0.3,0c-0.2,0-0.3,0.1-0.4,0.3c0,0,0,0,0,0.1v2.5
	c0,0.5-0.5,0.9-1,0.9c-0.6,0-1-0.4-1-0.9V6.9c0-0.2-0.1-0.3-0.3-0.3c0,0-0.1,0-0.1,0c-0.5,0.2-1,0.1-1.4-0.2C3.3,6,3,5.4,3,4.6
	c0-0.2,0-0.3,0-0.5c0.2-0.9,0.8-1.6,1.6-1.6c0.2,0,0.4,0,0.6,0.1c0.2,0.1,0.3,0,0.4-0.1C6,2.1,6.5,1.7,7,1.7c0.4,0,0.8,0.2,1.1,0.6
	c0.1,0.1,0.3,0.2,0.5,0c0,0,0,0,0,0C8.9,2,9.3,1.8,9.7,1.8c0.5,0,0.9,0.3,1.3,0.7c0.1,0.1,0.2,0.2,0.4,0.1c0.1,0,0.2-0.1,0.4-0.1
	c0.8,0,1.4,0.7,1.6,1.6c0,0.2,0,0.3,0,0.5C13.3,5.5,12.9,6.3,12.3,6.6L12.3,6.6z"/>
</svg>
